HIERARCHY
ROOT Hips
{
	OFFSET 0.017393 -0.023493 -0.005073
	CHANNELS 6 Xposition Yposition Zposition Zrotation Yrotation Xrotation 
	JOINT LHipJoint
	{
		OFFSET 0.013284 0.033964 -0.019092
		CHANNELS 3 Zrotation Yrotation Xrotation
		JOINT LeftUpLeg
		{
			OFFSET -0.009544 0.002870 0.011908
			CHANNELS 3 Zrotation Yrotation Xrotation
			JOINT LeftLeg
			{
				OFFSET 0.054997 0.071289 0.017283
				CHANNELS 3 Zrotation Yrotation Xrotation
				JOINT LeftFoot
				{
					OFFSET -0.037161 -0.003873 -0.030814
					CHANNELS 3 Zrotation Yrotation Xrotation
					JOINT LeftToeBase
					{
						OFFSET -0.082353 -0.025709 -0.041297
						CHANNELS 3 Zrotation Yrotation Xrotation
						End Site
						{
							OFFSET 0.000000 0.000000 0.000000
						}
					}
				}
			}
		}
	}
	JOINT RHipJoint
	{
		OFFSET -0.018821 -0.010557 -0.050628
		CHANNELS 3 Zrotation Yrotation Xrotation
		JOINT RightUpLeg
		{
			OFFSET 0.005323 0.032482 0.045259
			CHANNELS 3 Zrotation Yrotation Xrotation
			JOINT RightLeg
			{
				OFFSET 0.080669 0.126815 0.084691
				CHANNELS 3 Zrotation Yrotation Xrotation
				JOINT RightFoot
				{
					OFFSET 0.111853 0.104746 0.074356
					CHANNELS 3 Zrotation Yrotation Xrotation
					JOINT RightToeBase
					{
						OFFSET 0.121258 0.040109 0.054203
						CHANNELS 3 Zrotation Yrotation Xrotation
						End Site
						{
							OFFSET 0.000000 0.000000 0.000000
						}
					}
				}
			}
		}
	}
	JOINT LowerBack
	{
		OFFSET 0.021334 -0.000009 0.054404
		CHANNELS 3 Zrotation Yrotation Xrotation
		JOINT Spine
		{
			OFFSET 0.097483 0.046714 0.042725
			CHANNELS 3 Zrotation Yrotation Xrotation
			JOINT Spine1
			{
				OFFSET 0.009969 -0.078004 -0.029838
				CHANNELS 3 Zrotation Yrotation Xrotation
				JOINT Neck
				{
					OFFSET 0.000592 -0.018166 -0.011154
					CHANNELS 3 Zrotation Yrotation Xrotation
					JOINT Neck1
					{
						OFFSET -0.033722 -0.055427 -0.073179
						CHANNELS 3 Zrotation Yrotation Xrotation
						JOINT Head
						{
							OFFSET -0.052546 -0.073728 -0.090765
							CHANNELS 3 Zrotation Yrotation Xrotation
							End Site
							{
								OFFSET 0.000000 0.000000 0.000000
							}
						}
					}
				}
				JOINT LeftShoulder
				{
					OFFSET -0.091535 -0.140557 -0.109774
					CHANNELS 3 Zrotation Yrotation Xrotation
					JOINT LeftArm
					{
						OFFSET -0.093974 -0.147574 -0.236102
						CHANNELS 3 Zrotation Yrotation Xrotation
						JOINT LeftForeArm
						{
							OFFSET -0.220087 -0.196016 -0.152618
							CHANNELS 3 Zrotation Yrotation Xrotation
							JOINT LeftHand
							{
								OFFSET -0.185944 -0.212413 -0.238078
								CHANNELS 3 Zrotation Yrotation Xrotation
								JOINT LeftFingerBase
								{
									OFFSET -0.197318 -0.206307 -0.191690
									CHANNELS 3 Zrotation Yrotation Xrotation
									JOINT LeftHandIndex1
									{
										OFFSET -0.158364 -0.125563 -0.078758
										CHANNELS 3 Zrotation Yrotation Xrotation
										End Site
										{
											OFFSET 0.000000 0.000000 0.000000
										}
									}
								}
								JOINT LThumb
								{
									OFFSET -0.069963 -0.068348 -0.074419
									CHANNELS 3 Zrotation Yrotation Xrotation
									End Site
									{
										OFFSET 0.000000 0.000000 0.000000
									}
								}
							}
						}
					}
				}
				JOINT RightShoulder
				{
					OFFSET -0.031190 -0.040553 -0.020821
					CHANNELS 3 Zrotation Yrotation Xrotation
					JOINT RightArm
					{
						OFFSET 0.051622 0.071203 -0.006351
						CHANNELS 3 Zrotation Yrotation Xrotation
						JOINT RightForeArm
						{
							OFFSET -0.003797 -0.014609 -0.011314
							CHANNELS 3 Zrotation Yrotation Xrotation
							JOINT RightHand
							{
								OFFSET 0.058588 0.029905 0.029091
								CHANNELS 3 Zrotation Yrotation Xrotation
								JOINT RightFingerBase
								{
									OFFSET 0.038621 0.002340 -0.005770
									CHANNELS 3 Zrotation Yrotation Xrotation
									JOINT RightHandIndex1
									{
										OFFSET -0.004531 -0.028300 0.022177
										CHANNELS 3 Zrotation Yrotation Xrotation
										End Site
										{
											OFFSET 0.000000 0.000000 0.000000
										}
									}
								}
								JOINT RThumb
								{
									OFFSET 0.041966 0.015249 0.020952
									CHANNELS 3 Zrotation Yrotation Xrotation
									End Site
									{
										OFFSET -0.014028 0.017428 -0.013979
									}
								}
							}
						}
					}
				}
			}
		}
	}
}
MOTION
Frames: 6
Frame Time: 0.008333
-0.055926 -0.140825 -0.097488 -0.041525 -0.013362 -0.077901 -0.060601 -0.070716 -0.025228 0.036491 0.036814 -0.012441 -0.092216 -0.021329 -0.024405 -0.117575 -0.066649 -0.131383 -0.109252 -0.088204 -0.142487 -0.092339 -0.047231 -0.002224 0.008239 0.052263 0.022123 -0.003797 0.034004 0.052984 0.095500 0.080027 0.084485 0.030012 -0.004852 -0.026619 0.020937 -0.016487 0.005158 -0.011996 -0.064903 -0.061140 -0.068930 -0.052716 -0.029018 -0.025402 -0.069301 -0.150689 -0.083918 -0.134692 -0.167331 -0.142810 -0.190558 -0.137712 -0.157279 -0.145973 -0.248558 -0.205434 -0.200586 -0.175327 -0.233337 -0.245511 -0.217289 -0.095907 -0.128508 -0.137044 -0.082071 -0.104677 -0.062106 -0.111922 -0.114288 -0.063803 -0.052122 -0.062937 -0.018694 0.021424 0.032794 0.022705 -0.000625 -0.041471 -0.034064 0.000998 -0.039787 -0.086491 -0.072256 -0.138544 -0.159254 -0.161751 -0.180634 -0.120843 -0.125881 -0.184725 -0.171715 -0.214226 -0.139694 -0.120343
-0.062894 -0.082264 -0.016858 -0.011124 0.017277 -0.027056 -0.014908 0.011409 0.086253 0.106360 0.094074 0.027102 -0.069930 0.027200 0.047152 -0.023228 0.062617 -0.030198 0.002888 -0.030604 -0.116699 -0.070789 -0.043830 0.022344 0.025044 0.033733 0.001185 -0.020671 -0.034670 0.066237 0.081983 0.084587 0.148596 0.054808 0.026403 -0.029402 0.066807 0.023157 0.049733 0.080017 0.000535 0.007626 -0.014772 0.020732 0.095624 0.053533 0.024606 -0.082756 0.005968 -0.048968 -0.104431 -0.135139 -0.195564 -0.130834 -0.178153 -0.112022 -0.207831 -0.170223 -0.171259 -0.149515 -0.234908 -0.272035 -0.218938 -0.103292 -0.103645 -0.068914 -0.002536 0.007268 0.045910 0.012958 -0.001756 0.067071 0.051255 0.048524 0.098183 0.128221 0.117658 0.092242 0.063012 0.038843 0.053144 0.105080 0.083693 0.011466 0.003503 -0.080657 -0.096720 -0.128953 -0.130751 -0.072364 -0.080860 -0.108630 -0.082948 -0.100663 -0.019003 -0.050096
-0.042062 -0.088361 0.017505 0.015002 0.007890 0.043299 0.035295 0.062188 0.133364 0.088133 0.050438 0.030133 -0.064966 0.025246 0.088204 -0.042100 -0.040679 -0.128490 -0.114782 -0.117596 -0.146357 -0.189535 -0.199875 -0.212077 -0.179546 -0.144427 -0.150490 -0.191746 -0.207778 -0.107750 -0.079697 -0.037512 0.007983 -0.024543 -0.043587 -0.016280 0.159466 0.110264 0.146312 0.196009 0.100622 0.223513 0.189700 0.101860 0.121309 0.081172 0.098365 0.127693 0.212840 0.068924 -0.077586 -0.161220 -0.244245 -0.197309 -0.212475 -0.103226 -0.134790 -0.073954 -0.048474 0.003527 -0.068529 -0.162443 -0.125587 0.045554 0.022707 0.038455 0.095236 0.044504 0.076795 0.061689 0.066978 0.052995 0.044581 0.087413 0.140546 0.169863 0.176810 0.168599 0.144938 0.109729 0.092442 0.105678 0.142428 0.058213 0.042312 -0.071661 -0.113192 -0.127041 -0.087399 -0.009271 -0.016884 -0.012603 -0.042422 -0.039792 0.012163 -0.039077
-0.035899 -0.066146 0.033902 0.019670 0.026459 0.046905 0.046752 0.100855 0.141971 0.050117 -0.002665 -0.020088 -0.082999 0.027034 0.070174 -0.085581 -0.088469 -0.164766 -0.172077 -0.109687 -0.094163 -0.168023 -0.172966 -0.158826 -0.134801 -0.119322 -0.086382 -0.197495 -0.177299 -0.103718 -0.055385 0.017144 0.030406 0.006959 -0.031815 -0.020492 0.118800 0.125985 0.193502 0.229429 0.063789 0.178882 0.121287 0.013472 0.070888 0.039700 0.097500 0.136573 0.215457 0.063515 -0.088987 -0.205893 -0.280677 -0.199372 -0.240009 -0.103416 -0.061782 0.027283 0.001826 0.048182 -0.035434 -0.130983 -0.116880 0.026115 0.063944 0.104647 0.183238 0.124834 0.079634 0.066721 0.069597 0.026282 0.009750 0.072630 0.131077 0.175684 0.195898 0.207271 0.199781 0.208146 0.189981 0.139783 0.197384 0.092791 0.093550 -0.007887 -0.052767 -0.042500 -0.011711 0.066603 0.027966 0.046342 0.035927 0.037980 0.072520 0.021533
0.002064 -0.003945 0.077850 0.031175 0.001228 -0.062952 -0.062516 0.006829 0.060159 0.029239 -0.008754 -0.118332 -0.106786 -0.032924 -0.044694 -0.180263 -0.260017 -0.272003 -0.236027 -0.146103 -0.079000 -0.146092 -0.169079 -0.153883 -0.166222 -0.208531 -0.172944 -0.204081 -0.180727 -0.062458 -0.019995 -0.060353 -0.044726 -0.051723 -0.047356 -0.028990 0.120406 0.090427 0.139373 0.135002 0.001172 0.052322 -0.006966 -0.046105 0.054522 0.034363 0.102281 0.104007 0.239022 0.224641 0.044423 0.062065 -0.043865 -0.015773 -0.012305 -0.016015 0.037163 0.160372 0.108285 0.125951 0.020028 -0.041134 -0.056488 0.050978 0.067323 0.094846 0.157544 0.091256 0.061692 0.047334 0.030567 -0.057860 -0.047715 0.044897 0.070947 0.114249 0.127226 0.144466 0.132959 0.108630 0.124065 0.109530 0.160373 0.112905 0.118913 0.055715 0.001020 0.008790 0.018629 0.107917 0.091284 0.139241 0.148488 0.127891 0.175136 0.123491
0.001805 -0.036259 0.047044 -0.002008 -0.055282 -0.125428 -0.174084 -0.095980 -0.029598 -0.025588 -0.020149 -0.101110 -0.093097 -0.051176 -0.072556 -0.239122 -0.326488 -0.352109 -0.317534 -0.216905 -0.129144 -0.202841 -0.222937 -0.247633 -0.262383 -0.254950 -0.228490 -0.212240 -0.171769 -0.095953 0.005464 -0.059649 -0.117600 -0.125716 -0.163539 -0.155535 0.007796 -0.034294 0.035489 0.031092 -0.045673 -0.008374 -0.120596 -0.158280 -0.057791 -0.051026 0.053730 0.037063 0.140309 0.106897 -0.020450 0.034631 -0.099411 -0.021111 -0.010553 -0.012883 0.024816 0.156919 0.155557 0.199304 0.098313 0.060712 0.022628 0.124145 0.134333 0.102458 0.158645 0.126088 0.103112 0.062506 0.039608 -0.043839 -0.087375 0.030856 0.052349 0.067500 0.071566 0.050572 0.050833 0.009518 0.050773 0.028244 0.058688 0.037775 0.073215 0.015680 -0.050067 -0.050602 -0.038224 0.050210 0.060414 0.124791 0.117520 0.138148 0.168080 0.128510
